<?xml version="1.0" encoding="UTF-8"?>
<!DOCTYPE svg PUBLIC "-//W3C//DTD SVG 1.1//EN" "http://www.w3.org/Graphics/SVG/1.1/DTD/svg11.dtd">
<svg xmlns="http://www.w3.org/2000/svg" version="1.1" width="130px" height="32px" style="shape-rendering:geometricPrecision; text-rendering:geometricPrecision; image-rendering:optimizeQuality; fill-rule:evenodd; clip-rule:evenodd" xmlns:xlink="http://www.w3.org/1999/xlink">
<g><path style="opacity:1" fill="#1b1b1b" d="M 1.5,-0.5 C 11.1667,-0.5 20.8333,-0.5 30.5,-0.5C 30.5,1.16667 30.5,2.83333 30.5,4.5C 30.5,10.5 30.5,16.5 30.5,22.5C 30.5,24.1667 30.5,25.8333 30.5,27.5C 30.5,28.8333 30.5,30.1667 30.5,31.5C 20.8333,31.5 11.1667,31.5 1.5,31.5C 1.16667,30.5 0.5,29.8333 -0.5,29.5C -0.5,20.1667 -0.5,10.8333 -0.5,1.5C 0.5,1.16667 1.16667,0.5 1.5,-0.5 Z"/></g>
<g><path style="opacity:0.998" fill="#1e2327" d="M 30.5,-0.5 C 62.8333,-0.5 95.1667,-0.5 127.5,-0.5C 127.833,0.5 128.5,1.16667 129.5,1.5C 129.5,2.5 129.5,3.5 129.5,4.5C 96.5,4.5 63.5,4.5 30.5,4.5C 30.5,2.83333 30.5,1.16667 30.5,-0.5 Z"/></g>
<g><path style="opacity:1" fill="#707070" d="M 12.5,4.5 C 14.1667,4.5 15.8333,4.5 17.5,4.5C 16.1284,10.9986 14.4617,10.9986 12.5,4.5 Z"/></g>
<g><path style="opacity:1" fill="#1a1f23" d="M 30.5,4.5 C 63.5,4.5 96.5,4.5 129.5,4.5C 129.5,10.5 129.5,16.5 129.5,22.5C 115.802,21.9214 102.135,21.9214 88.5,22.5C 88.5,18.1667 88.5,13.8333 88.5,9.5C 87.5,9.5 86.5,9.5 85.5,9.5C 85.5,13.8333 85.5,18.1667 85.5,22.5C 67.1667,22.5 48.8333,22.5 30.5,22.5C 30.5,16.5 30.5,10.5 30.5,4.5 Z"/></g>
<g><path style="opacity:1" fill="#f6f6f6" d="M 19.5,7.5 C 22.0764,7.72175 22.9098,9.05509 22,11.5C 20.2105,13.8655 18.0439,15.5321 15.5,16.5C 15.3398,14.8008 15.5065,13.1341 16,11.5C 17.3756,10.2949 18.5423,8.9616 19.5,7.5 Z"/></g>
<g><path style="opacity:1" fill="#727272" d="M 9.5,7.5 C 13.7067,9.33642 15.04,12.3364 13.5,16.5C 11.1667,14.8333 9.16667,12.8333 7.5,10.5C 8.19251,9.48224 8.85917,8.48224 9.5,7.5 Z"/></g>
<g><path style="opacity:1" fill="#e3e3e4" d="M 57.5,9.5 C 57.3379,11.5273 57.5045,13.5273 58,15.5C 58.7172,14.9558 59.2172,14.2891 59.5,13.5C 61.7645,13.4406 62.0978,14.2739 60.5,16C 63.0951,21.1431 62.2618,21.6431 58,17.5C 57.7508,18.624 57.2508,19.624 56.5,20.5C 56.1667,18.6667 55.8333,16.8333 55.5,15C 55.5465,12.7047 56.2132,10.8714 57.5,9.5 Z"/></g>
<g><path style="opacity:1" fill="#e0e1e1" d="M 74.5,9.5 C 74.3379,11.5273 74.5045,13.5273 75,15.5C 75.7172,14.9558 76.2172,14.2891 76.5,13.5C 77.2506,12.4265 78.2506,12.2599 79.5,13C 77.0062,15.2436 77.0062,17.5769 79.5,20C 77.4057,20.4453 75.9057,19.612 75,17.5C 74.7508,18.624 74.2508,19.624 73.5,20.5C 73.1667,18.6667 72.8333,16.8333 72.5,15C 72.5465,12.7047 73.2132,10.8714 74.5,9.5 Z"/></g>
<g><path style="opacity:1" fill="#e8e9e9" d="M 110.5,9.5 C 112.164,10.9488 112.998,12.9488 113,15.5C 115.825,12.6625 116.658,12.9958 115.5,16.5C 117.845,21.2306 117.011,21.564 113,17.5C 112.751,18.624 112.251,19.624 111.5,20.5C 110.511,16.8927 110.177,13.226 110.5,9.5 Z"/></g>
<g><path style="opacity:1" fill="#dedfe0" d="M 48.5,19.5 C 48.5,19.8333 48.5,20.1667 48.5,20.5C 45.8535,17.8502 43.1868,17.8502 40.5,20.5C 40.2467,17.5212 40.9133,14.5212 42.5,11.5C 43.6888,10.5713 45.0222,10.238 46.5,10.5C 47.1667,13.5 47.8333,16.5 48.5,19.5 Z"/></g>
<g><path style="opacity:1" fill="#e5e5e6" d="M 103.5,19.5 C 103.5,19.8333 103.5,20.1667 103.5,20.5C 102.107,19.7402 100.607,19.0735 99,18.5C 97.6349,18.8443 96.4682,19.5109 95.5,20.5C 95.1667,20.1667 94.8333,19.8333 94.5,19.5C 97.7299,7.58502 100.73,7.58502 103.5,19.5 Z"/></g>
<g><path style="opacity:1" fill="#717171" d="M 3.5,11.5 C 7.08388,13.7394 10.4172,16.4061 13.5,19.5C 14.8333,21.5 14.8333,23.5 13.5,25.5C 12.1024,23.2034 10.4357,21.0368 8.5,19C 4.26373,18.2572 2.59706,15.7572 3.5,11.5 Z"/></g>
<g><path style="opacity:1" fill="#f8f8f8" d="M 24.5,11.5 C 27.0764,11.7218 27.9098,13.0551 27,15.5C 25.6811,17.4875 23.8477,18.6541 21.5,19C 19.9938,21.3333 18.3271,23.5 16.5,25.5C 15.359,23.5787 15.1923,21.5787 16,19.5C 19.3329,17.3329 22.1663,14.6662 24.5,11.5 Z"/></g>
<g><path style="opacity:1" fill="#e7e7e8" d="M 65.5,12.5 C 66.9187,13.4511 68.5853,13.7845 70.5,13.5C 70.5,15.8333 70.5,18.1667 70.5,20.5C 68.6921,19.0821 68.0254,17.0821 68.5,14.5C 67.5,14.5 66.5,14.5 65.5,14.5C 65.3285,16.4918 65.9951,18.1585 67.5,19.5C 66.3493,20.731 65.1827,20.731 64,19.5C 63.7489,17.567 63.2489,15.7337 62.5,14C 63.0465,13.0754 63.7132,12.2421 64.5,11.5C 65.1067,11.6236 65.44,11.9569 65.5,12.5 Z"/></g>
<g><path style="opacity:1" fill="#6f7274" d="M 57.5,9.5 C 58.1667,10.8333 58.8333,12.1667 59.5,13.5C 59.2172,14.2891 58.7172,14.9558 58,15.5C 57.5045,13.5273 57.3379,11.5273 57.5,9.5 Z"/></g>
<g><path style="opacity:1" fill="#686b6e" d="M 74.5,9.5 C 75.1667,10.8333 75.8333,12.1667 76.5,13.5C 76.2172,14.2891 75.7172,14.9558 75,15.5C 74.5045,13.5273 74.3379,11.5273 74.5,9.5 Z"/></g>
<g><path style="opacity:1" fill="#6c7072" d="M 54.5,13.5 C 53.1667,13.5 51.8333,13.5 50.5,13.5C 50.5,15.8333 50.5,18.1667 50.5,20.5C 49.8333,20.5 49.1667,20.5 48.5,20.5C 48.5,20.1667 48.5,19.8333 48.5,19.5C 49.4682,17.3926 49.8016,15.0593 49.5,12.5C 51.4147,12.2155 53.0813,12.5489 54.5,13.5 Z"/></g>
<g><path style="opacity:1" fill="#e6e7e7" d="M 54.5,13.5 C 53.3403,16.0334 52.007,18.3668 50.5,20.5C 50.5,18.1667 50.5,15.8333 50.5,13.5C 51.8333,13.5 53.1667,13.5 54.5,13.5 Z"/></g>
<g><path style="opacity:1" fill="#7d8082" d="M 106.5,13.5 C 105.532,15.6074 105.198,17.9407 105.5,20.5C 104.833,20.5 104.167,20.5 103.5,20.5C 103.5,20.1667 103.5,19.8333 103.5,19.5C 104.165,17.3021 104.832,14.9688 105.5,12.5C 106.107,12.6236 106.44,12.9569 106.5,13.5 Z"/></g>
<g><path style="opacity:1" fill="#dbdcdd" d="M 105.5,20.5 C 105.198,17.9407 105.532,15.6074 106.5,13.5C 107.575,12.4376 108.575,12.4376 109.5,13.5C 108.33,16.1048 106.997,18.4381 105.5,20.5 Z"/></g>
<g><path style="opacity:1" fill="#272c2f" d="M 43.5,13.5 C 44.2674,14.172 44.9341,15.0053 45.5,16C 43.9387,16.1881 43.272,15.3547 43.5,13.5 Z"/></g>
<g><path style="opacity:1" fill="#272c30" d="M 98.5,13.5 C 99.2674,14.172 99.9341,15.0053 100.5,16C 98.9387,16.1881 98.272,15.3547 98.5,13.5 Z"/></g>
<g><path style="opacity:1" fill="#7c7f81" d="M 70.5,20.5 C 70.5,18.1667 70.5,15.8333 70.5,13.5C 68.5853,13.7845 66.9187,13.4511 65.5,12.5C 66.5,12.5 67.5,12.5 68.5,12.5C 68.494,9.4524 69.494,8.9524 71.5,11C 71.6927,14.1573 71.3593,17.324 70.5,20.5 Z"/></g>
<g><path style="opacity:1" fill="#989b9d" d="M 88.5,22.5 C 87.5,23.8333 86.5,23.8333 85.5,22.5C 85.5,18.1667 85.5,13.8333 85.5,9.5C 86.5,9.5 87.5,9.5 88.5,9.5C 88.5,13.8333 88.5,18.1667 88.5,22.5 Z"/></g>
<g><path style="opacity:1" fill="#f1f1f1" d="M 5.5,20.5 C 7.14537,21.4787 8.4787,22.812 9.5,24.5C 9.16667,25.5 8.5,26.1667 7.5,26.5C 3.80535,24.9748 3.13869,22.9748 5.5,20.5 Z"/></g>
<g><path style="opacity:1" fill="#707070" d="M 23.5,21.5 C 24.7562,21.4614 25.7562,21.9614 26.5,23C 22.2464,27.5639 21.2464,27.0639 23.5,21.5 Z"/></g>
<g><path style="opacity:1" fill="#101519" d="M 129.5,22.5 C 129.5,24.1667 129.5,25.8333 129.5,27.5C 96.5,27.5 63.5,27.5 30.5,27.5C 30.5,25.8333 30.5,24.1667 30.5,22.5C 48.8333,22.5 67.1667,22.5 85.5,22.5C 86.5,23.8333 87.5,23.8333 88.5,22.5C 102.135,21.9214 115.802,21.9214 129.5,22.5 Z"/></g>
<g><path style="opacity:0.993" fill="#0e1317" d="M 30.5,27.5 C 63.5,27.5 96.5,27.5 129.5,27.5C 129.5,28.1667 129.5,28.8333 129.5,29.5C 128.5,29.8333 127.833,30.5 127.5,31.5C 95.1667,31.5 62.8333,31.5 30.5,31.5C 30.5,30.1667 30.5,28.8333 30.5,27.5 Z"/></g>
</svg>
